<svg width="32" height="32" xmlns="http://www.w3.org/2000/svg" version="1.1">

 <g>
  <title>Layer 1</title>
  <g stroke="#000000" id="svg_1" stroke-miterlimit="4" stroke-linejoin="round" stroke-linecap="round" stroke-width="1.5" fill-rule="evenodd" fill="none">
   <path stroke="#000000" id="svg_2" fill="#00bba7" d="m15.93626,3.59742c9.96598,0.94914 15.66083,7.59313 15.18626,27.52509l-21.83024,0c0,-8.54227 9.49141,-6.16942 7.59313,-19.93196"/>
   <path stroke="#000000" id="svg_3" fill="#00bba7" d="m17.83454,11.19055c0.36067,2.762 -5.26773,6.99517 -7.59313,8.54227c-2.84742,1.89828 -2.67658,4.11927 -4.74571,3.79656c-0.989,-0.89219 1.33829,-2.88539 0,-2.84742c-0.94914,0 0.18034,1.16744 -0.94914,1.89828c-0.94914,0 -3.79941,0.94914 -3.79656,-3.79656c0,-1.89828 5.69485,-11.38969 5.69485,-11.38969c0,0 1.79388,-1.80337 1.89828,-3.32199c-0.69287,-0.94345 -0.47457,-1.89828 -0.47457,-2.84742c0.94914,-0.94914 2.84742,2.37285 2.84742,2.37285l1.89828,0c0,0 0.74033,-1.89069 2.37285,-2.84742c0.94914,0 0.94914,2.84742 0.94914,2.84742"/>
   <path stroke="#000000" id="svg_4" fill="#000000" d="m4.072,18.30911a0.47457,0.47457 0 1 1 -0.94914,0a0.47457,0.47457 0 1 1 0.94914,0z"/>
   <path stroke="#000000" id="svg_5" fill="#000000" d="m9.22868,9.05498a0.41098,1.23293 0 1 1 -0.82196,-0.47457a0.41098,1.23293 0 1 1 0.82196,0.47457z"/>
  </g>
 </g>
</svg>